<svg width="32" height="32" viewBox="0 0 32 32" fill="none" xmlns="http://www.w3.org/2000/svg">
<path d="M23.1688 0H8.8306C3.96141 0 0 3.9616 0 8.83079V23.169C0 28.0384 3.96141 31.9998 8.8306 31.9998H23.1688C28.0384 31.9998 31.9998 28.0382 31.9998 23.169V8.83079C32 3.9616 28.0384 0 23.1688 0ZM29.1608 23.169C29.1608 26.4729 26.4729 29.1606 23.169 29.1606H8.8306C5.52693 29.1608 2.83918 26.4729 2.83918 23.169V8.83079C2.83918 5.52712 5.52693 2.83918 8.8306 2.83918H23.1688C26.4727 2.83918 29.1606 5.52712 29.1606 8.83079V23.169H29.1608Z" fill="white"/>
<path d="M16.0002 7.755C11.4535 7.755 7.75464 11.4539 7.75464 16.0005C7.75464 20.547 11.4535 24.2457 16.0002 24.2457C20.5468 24.2457 24.2457 20.547 24.2457 16.0005C24.2457 11.4539 20.5468 7.755 16.0002 7.755ZM16.0002 21.4063C13.0192 21.4063 10.5938 18.9813 10.5938 16.0004C10.5938 13.0192 13.019 10.594 16.0002 10.594C18.9813 10.594 21.4065 13.0192 21.4065 16.0004C21.4065 18.9813 18.9811 21.4063 16.0002 21.4063Z" fill="white"/>
<path d="M24.5913 5.34729C24.0443 5.34729 23.507 5.56875 23.1206 5.95677C22.7324 6.3429 22.5093 6.88045 22.5093 7.42935C22.5093 7.97656 22.7326 8.51392 23.1206 8.90194C23.5068 9.28807 24.0443 9.51142 24.5913 9.51142C25.1402 9.51142 25.6759 9.28807 26.0639 8.90194C26.4519 8.51392 26.6734 7.97637 26.6734 7.42935C26.6734 6.88045 26.4519 6.3429 26.0639 5.95677C25.6778 5.56875 25.1402 5.34729 24.5913 5.34729Z" fill="white"/>
</svg>
